<svg width="376" height="74" viewBox="0 0 376 74" fill="none" xmlns="http://www.w3.org/2000/svg">
<path d="M2.44538 31.0015C2.01268 30.8516 0.590923 30.7204 0.359115 30.8141C0.127306 30.9078 -0.1045 31.0015 0.0500378 31.5635C0.204575 32.1256 1.80295 32.4064 2.39535 32.3752C2.33353 32.0005 2.34236 31.2513 2.44538 31.0015Z" fill="#D68525"/>
<path d="M2.75468 30.689C2.4456 30.9887 2.2138 31.0012 2.13653 30.97C2.0335 31.4072 1.88926 32.3564 2.13653 32.6562C2.38379 32.956 3.52737 33.4681 4.06826 33.6866C4.4546 34.5922 5.2273 37.2651 5.2273 40.7124C4.84095 48.7686 9.16803 51.1105 12.1043 51.9536C15.0405 52.7967 17.1268 53.2651 17.6676 53.8271C18.2085 54.3892 22.1493 54.9513 23.1538 55.326C24.1583 55.7007 23.6946 57.3869 26.09 56.9185C28.0063 56.5438 28.3308 55.0137 28.2535 54.2955C25.8324 52.6718 20.8666 49.3494 20.3721 49.0496C19.7539 48.6749 19.8312 47.4571 19.8312 46.8951C23.0456 41.3494 22.922 37.1527 22.4583 35.7475C22.8447 35.0918 23.5401 33.4056 23.6946 33.2183C31.267 24.9747 30.6489 16.6375 30.1853 17.0122C15.8905 30.2206 11.3316 29.5649 11.0998 29.6585C10.868 29.7522 10.4816 30.3143 10.3271 31.251C10.1725 32.1878 10.4816 33.593 10.7907 34.155C11.0998 34.7171 11.9497 35.6538 11.7952 35.6538C11.6406 35.6538 10.1725 35.5602 10.018 35.4665C9.86345 35.3728 8.62714 32.8435 8.31807 32.2815C8.00899 31.7194 7.4681 30.97 6.69541 30.408C5.92272 29.8459 5.4591 29.8459 4.53187 29.8459C3.60464 29.8459 3.14103 30.3143 2.75468 30.689Z" fill="#3359AF"/>
<path d="M30.6726 72.1705C27.6832 72.1705 25.1199 71.7589 22.9826 70.9357C20.8597 70.127 19.1701 69.0223 17.9137 67.6214C16.6573 66.2206 15.8414 64.6465 15.4659 62.8991L24.0007 61.7511C24.2607 62.4154 24.6722 63.0363 25.2354 63.614C25.7987 64.1916 26.5424 64.6538 27.4666 65.0004C28.4053 65.3614 29.5462 65.5419 30.8892 65.5419C32.8965 65.5419 34.5501 65.0509 35.8498 64.0689C37.1639 63.1013 37.821 61.4767 37.821 59.195V53.108H37.4311C37.0268 54.0322 36.4202 54.9059 35.6115 55.729C34.8028 56.5522 33.763 57.2237 32.4922 57.7436C31.2214 58.2635 29.705 58.5234 27.9432 58.5234C25.4448 58.5234 23.1703 57.9458 21.1197 56.7905C19.0835 55.6207 17.4588 53.8372 16.2457 51.44C15.0471 49.0283 14.4478 45.9812 14.4478 42.2986C14.4478 38.5295 15.0616 35.3813 16.2891 32.854C17.5166 30.3268 19.1484 28.435 21.1847 27.1786C23.2353 25.9222 25.4809 25.294 27.9215 25.294C29.7844 25.294 31.3441 25.6117 32.6005 26.2472C33.8569 26.8681 34.8678 27.648 35.6332 28.5866C36.413 29.5109 37.0123 30.4207 37.4311 31.316H37.7777V25.7273H46.9407V59.3249C46.9407 62.1554 46.2475 64.5238 44.8611 66.43C43.4748 68.3363 41.5541 69.766 39.0991 70.7191C36.6585 71.6867 33.8497 72.1705 30.6726 72.1705ZM30.8675 51.5916C32.355 51.5916 33.6114 51.2234 34.6367 50.4869C35.6765 49.7359 36.4708 48.6673 37.0195 47.2809C37.5827 45.8801 37.8643 44.2049 37.8643 42.2553C37.8643 40.3058 37.59 38.6161 37.0412 37.1864C36.4924 35.7423 35.6982 34.6231 34.6584 33.8288C33.6186 33.0346 32.355 32.6374 30.8675 32.6374C29.3512 32.6374 28.0732 33.049 27.0334 33.8722C25.9936 34.6809 25.2066 35.8073 24.6722 37.2514C24.1379 38.6955 23.8707 40.3635 23.8707 42.2553C23.8707 44.176 24.1379 45.8368 24.6722 47.2376C25.221 48.6239 26.008 49.6998 27.0334 50.4652C28.0732 51.2161 29.3512 51.5916 30.8675 51.5916ZM69.3175 59.6499C65.9527 59.6499 63.0427 58.935 60.5877 57.5053C58.1471 56.0612 56.2625 54.0539 54.9339 51.4833C53.6054 48.8983 52.9411 45.9018 52.9411 42.4936C52.9411 39.0566 53.6054 36.0528 54.9339 33.4822C56.2625 30.8973 58.1471 28.8899 60.5877 27.4602C63.0427 26.0161 65.9527 25.294 69.3175 25.294C72.6823 25.294 75.585 26.0161 78.0256 27.4602C80.4806 28.8899 82.3724 30.8973 83.701 33.4822C85.0296 36.0528 85.6939 39.0566 85.6939 42.4936C85.6939 45.9018 85.0296 48.8983 83.701 51.4833C82.3724 54.0539 80.4806 56.0612 78.0256 57.5053C75.585 58.935 72.6823 59.6499 69.3175 59.6499ZM69.3608 52.5014C70.8916 52.5014 72.1696 52.0682 73.195 51.2017C74.2203 50.3208 74.9929 49.1222 75.5128 47.6058C76.0471 46.0895 76.3143 44.3638 76.3143 42.4286C76.3143 40.4935 76.0471 38.7678 75.5128 37.2514C74.9929 35.7351 74.2203 34.5365 73.195 33.6555C72.1696 32.7746 70.8916 32.3342 69.3608 32.3342C67.8156 32.3342 66.5159 32.7746 65.4616 33.6555C64.4219 34.5365 63.6348 35.7351 63.1005 37.2514C62.5806 38.7678 62.3207 40.4935 62.3207 42.4286C62.3207 44.3638 62.5806 46.0895 63.1005 47.6058C63.6348 49.1222 64.4219 50.3208 65.4616 51.2017C66.5159 52.0682 67.8156 52.5014 69.3608 52.5014ZM106.728 59.6499C103.363 59.6499 100.453 58.935 97.9979 57.5053C95.5573 56.0612 93.6727 54.0539 92.3441 51.4833C91.0155 48.8983 90.3512 45.9018 90.3512 42.4936C90.3512 39.0566 91.0155 36.0528 92.3441 33.4822C93.6727 30.8973 95.5573 28.8899 97.9979 27.4602C100.453 26.0161 103.363 25.294 106.728 25.294C110.092 25.294 112.995 26.0161 115.436 27.4602C117.891 28.8899 119.783 30.8973 121.111 33.4822C122.44 36.0528 123.104 39.0566 123.104 42.4936C123.104 45.9018 122.44 48.8983 121.111 51.4833C119.783 54.0539 117.891 56.0612 115.436 57.5053C112.995 58.935 110.092 59.6499 106.728 59.6499ZM106.771 52.5014C108.302 52.5014 109.58 52.0682 110.605 51.2017C111.63 50.3208 112.403 49.1222 112.923 47.6058C113.457 46.0895 113.724 44.3638 113.724 42.4286C113.724 40.4935 113.457 38.7678 112.923 37.2514C112.403 35.7351 111.63 34.5365 110.605 33.6555C109.58 32.7746 108.302 32.3342 106.771 32.3342C105.226 32.3342 103.926 32.7746 102.872 33.6555C101.832 34.5365 101.045 35.7351 100.511 37.2514C99.9908 38.7678 99.7308 40.4935 99.7308 42.4286C99.7308 44.3638 99.9908 46.0895 100.511 47.6058C101.045 49.1222 101.832 50.3208 102.872 51.2017C103.926 52.0682 105.226 52.5014 106.771 52.5014ZM156.788 35.2152L148.34 35.7351C148.196 35.013 147.885 34.3632 147.409 33.7855C146.932 33.1934 146.304 32.7241 145.524 32.3775C144.759 32.0165 143.842 31.8359 142.773 31.8359C141.343 31.8359 140.138 32.1392 139.156 32.7457C138.174 33.3378 137.683 34.1321 137.683 35.1285C137.683 35.9228 138 36.5943 138.636 37.1431C139.271 37.6919 140.361 38.1323 141.907 38.4645L147.929 39.6776C151.163 40.3419 153.575 41.4105 155.164 42.8835C156.752 44.3565 157.547 46.2917 157.547 48.6889C157.547 50.8696 156.904 52.783 155.619 54.4293C154.348 56.0756 152.6 57.3609 150.376 58.2852C148.167 59.195 145.618 59.6499 142.73 59.6499C138.325 59.6499 134.816 58.7328 132.202 56.8988C129.603 55.0503 128.079 52.5375 127.631 49.3604L136.708 48.8839C136.982 50.2269 137.646 51.2522 138.701 51.9599C139.755 52.6531 141.105 52.9996 142.751 52.9996C144.369 52.9996 145.669 52.6892 146.651 52.0682C147.647 51.4328 148.152 50.6168 148.167 49.6204C148.152 48.7828 147.799 48.0968 147.105 47.5625C146.412 47.0137 145.344 46.5949 143.9 46.3061L138.137 45.158C134.888 44.5082 132.469 43.3817 130.881 41.7788C129.307 40.1758 128.52 38.1323 128.52 35.6484C128.52 33.5111 129.097 31.6699 130.252 30.1246C131.422 28.5794 133.061 27.388 135.17 26.5504C137.293 25.7128 139.777 25.294 142.621 25.294C146.824 25.294 150.131 26.1822 152.543 27.9584C154.969 29.7347 156.384 32.1536 156.788 35.2152ZM178.521 59.6499C175.098 59.6499 172.152 58.9567 169.683 57.5703C167.228 56.1695 165.336 54.1911 164.007 51.6349C162.679 49.0644 162.014 46.0245 162.014 42.5153C162.014 39.0927 162.679 36.0889 164.007 33.5039C165.336 30.9189 167.206 28.9044 169.618 27.4602C172.044 26.0161 174.889 25.294 178.152 25.294C180.348 25.294 182.391 25.6478 184.283 26.3555C186.189 27.0486 187.85 28.0956 189.265 29.4964C190.695 30.8973 191.807 32.6591 192.601 34.782C193.395 36.8904 193.792 39.3598 193.792 42.1903V44.7248H165.697V39.006H185.106C185.106 37.6774 184.817 36.5005 184.239 35.4751C183.662 34.4498 182.86 33.6483 181.835 33.0707C180.824 32.4786 179.647 32.1825 178.304 32.1825C176.903 32.1825 175.661 32.5075 174.578 33.1573C173.51 33.7927 172.672 34.652 172.065 35.7351C171.459 36.8037 171.148 37.9951 171.134 39.3093V44.7464C171.134 46.3928 171.437 47.8152 172.044 49.0138C172.665 50.2125 173.538 51.1367 174.665 51.7866C175.791 52.4364 177.127 52.7614 178.672 52.7614C179.698 52.7614 180.636 52.617 181.488 52.3281C182.34 52.0393 183.07 51.6061 183.676 51.0284C184.283 50.4508 184.745 49.7431 185.063 48.9055L193.597 49.4688C193.164 51.5194 192.276 53.3101 190.933 54.8409C189.604 56.3572 187.886 57.5414 185.777 58.3935C183.683 59.2311 181.265 59.6499 178.521 59.6499ZM199.814 59V25.7273H208.761V31.5327H209.107C209.714 29.4676 210.732 27.9079 212.162 26.8537C213.591 25.785 215.238 25.2507 217.101 25.2507C217.563 25.2507 218.061 25.2796 218.595 25.3374C219.13 25.3951 219.599 25.4745 220.003 25.5756V33.7638C219.57 33.6339 218.971 33.5183 218.205 33.4173C217.44 33.3162 216.74 33.2656 216.104 33.2656C214.747 33.2656 213.534 33.5617 212.465 34.1538C211.411 34.7314 210.573 35.5401 209.952 36.5799C209.346 37.6197 209.042 38.8183 209.042 40.1758V59H199.814ZM246.111 44.8331V25.7273H255.339V59H246.48V52.9563H246.133C245.382 54.9059 244.133 56.4728 242.385 57.657C240.653 58.8411 238.537 59.4332 236.039 59.4332C233.815 59.4332 231.858 58.9278 230.168 57.9169C228.479 56.906 227.157 55.4691 226.204 53.6062C225.265 51.7433 224.789 49.5121 224.774 46.9126V25.7273H234.002V45.2663C234.017 47.2304 234.544 48.7828 235.584 49.9236C236.623 51.0645 238.017 51.6349 239.764 51.6349C240.876 51.6349 241.916 51.3822 242.884 50.8768C243.851 50.3569 244.631 49.5915 245.223 48.5806C245.83 47.5697 246.126 46.3205 246.111 44.8331ZM271.949 39.7642V59H262.721V25.7273H271.515V31.5977H271.905C272.642 29.6625 273.877 28.1317 275.609 27.0053C277.342 25.8645 279.444 25.294 281.913 25.294C284.224 25.294 286.238 25.7995 287.957 26.8104C289.675 27.8213 291.011 29.2654 291.964 31.1428C292.917 33.0057 293.394 35.2296 293.394 37.8146V59H284.166V39.4609C284.18 37.4247 283.66 35.8362 282.606 34.6953C281.552 33.54 280.101 32.9624 278.252 32.9624C277.01 32.9624 275.913 33.2295 274.96 33.7638C274.021 34.2982 273.284 35.078 272.75 36.1033C272.23 37.1142 271.963 38.3345 271.949 39.7642ZM306.061 59.5632C304.631 59.5632 303.404 59.0578 302.378 58.0469C301.367 57.0215 300.862 55.794 300.862 54.3643C300.862 52.9491 301.367 51.736 302.378 50.7251C303.404 49.7143 304.631 49.2088 306.061 49.2088C307.447 49.2088 308.66 49.7143 309.7 50.7251C310.74 51.736 311.26 52.9491 311.26 54.3643C311.26 55.3175 311.014 56.1912 310.523 56.9854C310.047 57.7653 309.418 58.3935 308.638 58.87C307.859 59.3321 306.999 59.5632 306.061 59.5632ZM318.836 59V25.7273H328.064V59H318.836ZM323.472 21.4382C322.1 21.4382 320.923 20.9833 319.941 20.0735C318.973 19.1493 318.489 18.0445 318.489 16.7592C318.489 15.4884 318.973 14.3981 319.941 13.4883C320.923 12.564 322.1 12.1019 323.472 12.1019C324.843 12.1019 326.013 12.564 326.981 13.4883C327.963 14.3981 328.454 15.4884 328.454 16.7592C328.454 18.0445 327.963 19.1493 326.981 20.0735C326.013 20.9833 324.843 21.4382 323.472 21.4382ZM350.489 59.6499C347.125 59.6499 344.215 58.935 341.76 57.5053C339.319 56.0612 337.434 54.0539 336.106 51.4833C334.777 48.8983 334.113 45.9018 334.113 42.4936C334.113 39.0566 334.777 36.0528 336.106 33.4822C337.434 30.8973 339.319 28.8899 341.76 27.4602C344.215 26.0161 347.125 25.294 350.489 25.294C353.854 25.294 356.757 26.0161 359.197 27.4602C361.652 28.8899 363.544 30.8973 364.873 33.4822C366.201 36.0528 366.866 39.0566 366.866 42.4936C366.866 45.9018 366.201 48.8983 364.873 51.4833C363.544 54.0539 361.652 56.0612 359.197 57.5053C356.757 58.935 353.854 59.6499 350.489 59.6499ZM350.533 52.5014C352.063 52.5014 353.342 52.0682 354.367 51.2017C355.392 50.3208 356.165 49.1222 356.685 47.6058C357.219 46.0895 357.486 44.3638 357.486 42.4286C357.486 40.4935 357.219 38.7678 356.685 37.2514C356.165 35.7351 355.392 34.5365 354.367 33.6555C353.342 32.7746 352.063 32.3342 350.533 32.3342C348.987 32.3342 347.688 32.7746 346.634 33.6555C345.594 34.5365 344.807 35.7351 344.272 37.2514C343.752 38.7678 343.493 40.4935 343.493 42.4286C343.493 44.3638 343.752 46.0895 344.272 47.6058C344.807 49.1222 345.594 50.3208 346.634 51.2017C347.688 52.0682 348.987 52.5014 350.533 52.5014Z" fill="#3359AF"/>
<circle cx="306.5" cy="54.5" r="5.5" fill="#BA523D"/>
</svg>
